<svg xmlns="http://www.w3.org/2000/svg" viewBox="0 0 17.47 15.86"><defs><style>.cls-1{fill:#fff;}</style></defs><g id="Layer_2" data-name="Layer 2"><g id="Layer_1-2" data-name="Layer 1"><path class="cls-1" d="M14.42,5.3a5.74,5.74,0,0,0-.55-1,1.5,1.5,0,0,1-.12-1.59l.11-.18a1.5,1.5,0,0,0-.55-2L12.88.28a1.5,1.5,0,0,0-2.05.55h0l-.08.1a1.5,1.5,0,0,1-1.48.74h-1A1.5,1.5,0,0,1,6.75.93L6.64.75a1.5,1.5,0,0,0-2-.55h0L4.16.45a1.5,1.5,0,0,0-.57,2l0,0,.11.18a1.49,1.49,0,0,1-.09,1.63,5.74,5.74,0,0,0-.55,1,1.5,1.5,0,0,1-1.33.84H1.5A1.5,1.5,0,0,0,0,7.68v.5a1.5,1.5,0,0,0,1.5,1.5h.25a1.51,1.51,0,0,1,1.36.88,5.4,5.4,0,0,0,.55,1,1.5,1.5,0,0,1,.09,1.59l-.11.18a1.5,1.5,0,0,0,.55,2.05h0l.43.25a1.49,1.49,0,0,0,2.05-.55h0l.08-.15a1.5,1.5,0,0,1,1.48-.74h1a1.5,1.5,0,0,1,1.48.74l.11.18a1.49,1.49,0,0,0,2.05.55h0l.43-.25a1.5,1.5,0,0,0,.55-2.05h0l-.14-.21a1.51,1.51,0,0,1,.09-1.63,5.4,5.4,0,0,0,.55-1,1.51,1.51,0,0,1,1.36-.84H16a1.5,1.5,0,0,0,1.5-1.5v-.5A1.5,1.5,0,0,0,16,6.18h-.22A1.51,1.51,0,0,1,14.42,5.3Zm-2.6,4.38h0a3.54,3.54,0,0,1-3,1.75h0a3.5,3.5,0,0,1-3-1.75h0a3.58,3.58,0,0,1,0-3.5h0a3.53,3.53,0,0,1,3-1.75h0a3.54,3.54,0,0,1,3,1.75h0A3.58,3.58,0,0,1,11.82,9.68Z"/></g></g></svg>